<svg id="Layer_1" data-name="Layer 1" xmlns="http://www.w3.org/2000/svg" viewBox="0 0 64 64"><defs><style>.cls-1{fill:#c65119;}</style></defs><path class="cls-1" d="M32,10.21a.76.76,0,0,0,.54-.23.75.75,0,0,0,0-1.06L29.53,6a.75.75,0,0,0-1,1.08l3,2.9A.74.74,0,0,0,32,10.21Z"/><path class="cls-1" d="M8.78,61.71h6.81a2.89,2.89,0,0,0,2.09.89h.53a2.87,2.87,0,0,0,2.09-.89H43.7a2.87,2.87,0,0,0,2.08.89h.54a2.89,2.89,0,0,0,2.09-.89h6.81a1.83,1.83,0,0,0,1.83-1.83v-12a1.83,1.83,0,0,0-1.83-1.82H48.41a2.89,2.89,0,0,0-2.09-.89h-.54a2.87,2.87,0,0,0-2.08.89H39.82V41h.46A1.82,1.82,0,0,0,42.1,39.2V37.05a1.82,1.82,0,0,0-1.82-1.82H34.63V32.7H36.2A.75.75,0,0,0,37,32V27.6h7.27a2.9,2.9,0,0,0,2.89-2.9V22.57a2.9,2.9,0,0,0-2.89-2.9H34.63V17.06a8.06,8.06,0,0,0,5.43-7.6h0a8.06,8.06,0,0,0-16.12,0h0a8.07,8.07,0,0,0,5.43,7.6v2.61H19.78a2.9,2.9,0,0,0-2.9,2.9V24.7a2.9,2.9,0,0,0,2.9,2.9h7.27V32a.75.75,0,0,0,.75.75h1.57v2.53H23.72a1.82,1.82,0,0,0-1.82,1.82V39.2A1.82,1.82,0,0,0,23.72,41h.46v5H20.3a2.87,2.87,0,0,0-2.09-.89h-.53a2.89,2.89,0,0,0-2.09.89H8.78A1.83,1.83,0,0,0,7,47.88v12A1.83,1.83,0,0,0,8.78,61.71Zm16.71-51.5h.86a.74.74,0,0,0,.75-.75.76.76,0,0,0-.75-.75h-.86a6.57,6.57,0,0,1,5.76-5.77v.87a.75.75,0,1,0,1.5,0V2.94a6.57,6.57,0,0,1,5.76,5.77h-.86a.75.75,0,0,0,0,1.5h.86A6.57,6.57,0,0,1,32.75,16V15.1a.76.76,0,0,0-.75-.75h0a.75.75,0,0,0-.75.75V16A6.57,6.57,0,0,1,25.49,10.21ZM32,17.51h0a7,7,0,0,0,1.13-.09v2.25H30.87V17.42A7.08,7.08,0,0,0,32,17.51ZM55.22,47.56a.33.33,0,0,1,.33.32v12a.33.33,0,0,1-.33.33h-6a2.83,2.83,0,0,0,0-.5V48.06a2.73,2.73,0,0,0,0-.5Zm-8.9-.89a1.4,1.4,0,0,1,1.15.6l0,0a1.42,1.42,0,0,1,.23.76V59.71a1.4,1.4,0,0,1-.22.75.1.1,0,0,0,0,0,1.38,1.38,0,0,1-1.14.59h-.54a1.39,1.39,0,0,1-1.39-1.39V48.06a1.39,1.39,0,0,1,1.39-1.39ZM19.78,21.17H44.22a1.4,1.4,0,0,1,1.39,1.4v.31H18.38v-.31A1.4,1.4,0,0,1,19.78,21.17Zm-1.4,3.53v-.32H45.61v.32a1.4,1.4,0,0,1-1.39,1.4H19.78A1.4,1.4,0,0,1,18.38,24.7Zm10.17,2.9h6.9v3.6h-6.9Zm2.32,5.1h2.26v2.53H30.87ZM23.4,39.2V37.05a.32.32,0,0,1,.32-.32H40.28a.32.32,0,0,1,.32.32V39.2a.32.32,0,0,1-.32.33H23.72A.32.32,0,0,1,23.4,39.2Zm1.53,8.36a.75.75,0,0,0,.75-.75V41H38.32v5.78a.75.75,0,0,0,.75.75h3.87a2.73,2.73,0,0,0,0,.5V59.71a2.83,2.83,0,0,0,0,.5H21.06a2.83,2.83,0,0,0,.05-.5V48.06a2.73,2.73,0,0,0-.05-.5Zm-6.72-.89a1.39,1.39,0,0,1,1.4,1.39V59.71a1.39,1.39,0,0,1-1.4,1.39h-.53a1.42,1.42,0,0,1-1.14-.58.25.25,0,0,0,0-.07,1.34,1.34,0,0,1-.22-.74V48.06a1.33,1.33,0,0,1,.23-.75.13.13,0,0,1,0-.05,1.38,1.38,0,0,1,1.14-.59ZM8.45,47.88a.33.33,0,0,1,.33-.32h6.05a2.73,2.73,0,0,0-.05.5V59.71a2.83,2.83,0,0,0,.05.5H8.78a.33.33,0,0,1-.33-.33Z"/></svg>