<svg id="Layer_1" data-name="Layer 1" xmlns="http://www.w3.org/2000/svg" viewBox="0 0 64 64"><defs><style>.cls-1{fill:#c65119;}</style></defs><path class="cls-1" d="M5.46,61.74H28.51a.74.74,0,0,0,.75-.75V58.11a6.46,6.46,0,0,0-6.45-6.46H20.64V46s0-.07.05-.11L33.36,6.13a.76.76,0,0,0-.49-1L24.65,2.57a6.55,6.55,0,0,0-8.23,4.25L7.27,35.53a6.58,6.58,0,0,0,4.26,8.24l1.81.57v7.31H11.16a6.46,6.46,0,0,0-6.45,6.46V61A.74.74,0,0,0,5.46,61.74Zm22.3-1.5H6.21V58.63l21.55-.1ZM9,39.84A5,5,0,0,1,8.7,36L17.85,7.28A5,5,0,0,1,24.2,4l7.5,2.39L19.49,44.73,12,42.34A5,5,0,0,1,9,39.84Zm5.8,5,4.3,1.37v5.46h-4.3Zm-3.68,8.33H22.81A5,5,0,0,1,27.64,57l-21.33.1A5,5,0,0,1,11.16,53.15Z"/><path class="cls-1" d="M43.34,58.51A.75.75,0,0,0,44,57.35L32.19,39.15a.75.75,0,1,0-1.26.82l11.78,18.2A.74.74,0,0,0,43.34,58.51Z"/><path class="cls-1" d="M37.42,20.38a.74.74,0,0,0,.7.49.78.78,0,0,0,.26,0L58.8,13.42A.75.75,0,1,0,58.29,12L37.87,19.42A.75.75,0,0,0,37.42,20.38Z"/><path class="cls-1" d="M57.37,38.16a.73.73,0,0,0,.71-.51.74.74,0,0,0-.47-.95L37,29.73a.75.75,0,0,0-.48,1.42l20.64,7A.67.67,0,0,0,57.37,38.16Z"/></svg>