<svg id="Layer_1" data-name="Layer 1" xmlns="http://www.w3.org/2000/svg" viewBox="0 0 64 64"><defs><style>.cls-1{fill:#c65119;}</style></defs><path class="cls-1" d="M21.66,38.78H15.13v-9h2.75a1.75,1.75,0,0,0,1.75-1.75V22.4a1.75,1.75,0,0,0-1.75-1.75h-7A1.75,1.75,0,0,0,9.11,22.4v5.66a1.75,1.75,0,0,0,1.75,1.75h2.77v9h-3v-5A.75.75,0,0,0,9.88,33a.76.76,0,0,0-.76.75v5h-2a.75.75,0,0,0-.75.75V54.1a.74.74,0,0,0,.75.75h6.54v8.23a.75.75,0,0,0,1.5,0V54.85h6.53a.75.75,0,0,0,.75-.75V39.53A.76.76,0,0,0,21.66,38.78Zm-11-10.72V22.4a.25.25,0,0,1,.25-.25h7a.25.25,0,0,1,.25.25v5.66a.25.25,0,0,1-.25.25h-7A.25.25,0,0,1,10.61,28.06Zm10.3,25.29H7.84V40.28H20.91Z"/><path class="cls-1" d="M17.16,45.73a1.24,1.24,0,1,0-1.24-1.24A1.24,1.24,0,0,0,17.16,45.73Z"/><path class="cls-1" d="M17.12,19.8a.75.75,0,0,1-.75-.75V16.49a2.13,2.13,0,0,0-2-2.25,2.14,2.14,0,0,0-2,2.25v2.56a.75.75,0,0,1-1.5,0V16.49a3.64,3.64,0,0,1,3.5-3.75,3.64,3.64,0,0,1,3.5,3.75v2.56A.74.74,0,0,1,17.12,19.8Z"/><path class="cls-1" d="M17.12,19.8h-5.5a.75.75,0,0,1,0-1.5h5.5a.75.75,0,0,1,0,1.5Z"/><path class="cls-1" d="M16.37,24.68H12.5a.75.75,0,0,1,0-1.5h3.87a.75.75,0,0,1,0,1.5Z"/><path class="cls-1" d="M16.37,27.28H12.5a.75.75,0,0,1,0-1.5h3.87a.75.75,0,1,1,0,1.5Z"/><path class="cls-1" d="M42.13,3.43l-.2,0a.76.76,0,0,1-.52-.93L41.92.71a.75.75,0,0,1,1.44.42l-.5,1.76A.77.77,0,0,1,42.13,3.43Z"/><path class="cls-1" d="M46.33,6.66A.75.75,0,0,1,46,5.25l1.51-.83a.75.75,0,1,1,.72,1.31l-1.51.84A.8.8,0,0,1,46.33,6.66Z"/><path class="cls-1" d="M32.61,14.24a.75.75,0,0,1-.36-1.4l1.43-.79a.75.75,0,0,1,1,.3.74.74,0,0,1-.3,1L33,14.15A.8.8,0,0,1,32.61,14.24Z"/><path class="cls-1" d="M33.57,8.12l-.21,0-1.71-.5a.74.74,0,0,1-.51-.93.75.75,0,0,1,.93-.51l1.71.5a.75.75,0,0,1-.21,1.47Z"/><path class="cls-1" d="M36.91,4a.74.74,0,0,1-.66-.39L35.36,2a.75.75,0,0,1,1.32-.72l.88,1.62a.75.75,0,0,1-.3,1A.73.73,0,0,1,36.91,4Z"/><path class="cls-1" d="M57.66,17.05a6.06,6.06,0,0,0-6-6.06A7.87,7.87,0,0,0,45.1,7.44l-.23,0a5,5,0,1,0-8.19,5.32,5.45,5.45,0,0,0-3,4.86,5.71,5.71,0,0,0,5.76,5.49H51.73a3.31,3.31,0,0,0,.34,0h0A6.07,6.07,0,0,0,57.66,17.05ZM36.86,8.31a3.49,3.49,0,0,1,6.46-.64A7.83,7.83,0,0,0,38,12,3.51,3.51,0,0,1,36.86,8.31ZM51.92,21.6l-.19,0H51.6L40,21.64a.41.41,0,0,0-.11,0,.55.55,0,0,0-.18,0h-.2a4.24,4.24,0,0,1-4.26-4,4,4,0,0,1,3.3-3.91l0,0a.62.62,0,0,0,.19-.07l.06,0a.81.81,0,0,0,.19-.18l0-.06.07-.14a6.34,6.34,0,0,1,11.5-1.11.39.39,0,0,0,.08.1,1.09,1.09,0,0,0,.1.11.64.64,0,0,0,.14.08l.12.06.19,0h.37A4.53,4.53,0,0,1,55.69,15a4.57,4.57,0,0,1-3.77,6.58Z"/><path class="cls-1" d="M39.82,29.73a.66.66,0,0,1-.3-.07.76.76,0,0,1-.39-1l1.5-3.38A.75.75,0,1,1,42,25.9l-1.49,3.38A.76.76,0,0,1,39.82,29.73Z"/><path class="cls-1" d="M44.64,29.73a.7.7,0,0,1-.31-.07.76.76,0,0,1-.38-1l1.5-3.38a.75.75,0,1,1,1.37.61l-1.5,3.38A.75.75,0,0,1,44.64,29.73Z"/><path class="cls-1" d="M49.46,29.73a.67.67,0,0,1-.31-.07.75.75,0,0,1-.38-1l1.5-3.38a.75.75,0,1,1,1.37.61l-1.5,3.38A.75.75,0,0,1,49.46,29.73Z"/></svg>