<svg id="Layer_1" data-name="Layer 1" xmlns="http://www.w3.org/2000/svg" viewBox="0 0 64 64"><defs><style>.cls-1{fill:#c65119;}</style></defs><path class="cls-1" d="M49.53,39.44,42,48.91a.75.75,0,0,0,1.18.94l7.52-9.47a.77.77,0,0,0-.12-1.06A.76.76,0,0,0,49.53,39.44Z"/><path class="cls-1" d="M13.41,39.32a.77.77,0,0,0-.12,1.06l7.56,9.47a.77.77,0,0,0,.59.28A.75.75,0,0,0,22,48.91l-7.56-9.47A.77.77,0,0,0,13.41,39.32Z"/><path class="cls-1" d="M31.25,34.73V49.38a.75.75,0,0,0,1.5,0V34.73a.75.75,0,1,0-1.5,0Z"/><path class="cls-1" d="M58.32,62.1a.75.75,0,0,0,0-1.5H55l-3.2-4.47A2.91,2.91,0,0,0,49.56,55H16.43a2.92,2.92,0,0,0-2.2,1.13L11,60.6H5.68a.75.75,0,0,0,0,1.5ZM15.46,57a1.44,1.44,0,0,1,1-.5H49.56a1.46,1.46,0,0,1,1,.5l2.58,3.6H12.88Z"/><path class="cls-1" d="M8.12,17.5v6.32a1.76,1.76,0,0,0,1.75,1.75h3.42a5.52,5.52,0,0,0,10.94,0H39.28a5.52,5.52,0,0,0,10.94,0h3.91a1.76,1.76,0,0,0,1.75-1.75V19.41a.19.19,0,0,0,0-.07s0,0,0-.06a7.53,7.53,0,0,0-.26-1,0,0,0,0,0,0,0,8.63,8.63,0,0,0-8.25-5.48h-2.1l-3.7-8.74A4.23,4.23,0,0,0,37.83,1.9H19.37a4.25,4.25,0,0,0-3.74,2.18L11.9,12.91A4.69,4.69,0,0,0,8.12,17.5ZM18.76,28.85a4,4,0,1,1,4-4A4,4,0,0,1,18.76,28.85Zm26,0a4,4,0,1,1,4-4A4,4,0,0,1,44.75,28.85Zm9-11H52.5a.75.75,0,0,0,0,1.5h1.84c0,.05,0,.1,0,.15v4.33a.25.25,0,0,1-.25.25H50.22a5.52,5.52,0,0,0-10.94,0h-15a5.52,5.52,0,0,0-10.94,0H9.87a.25.25,0,0,1-.25-.25V21.43h1.67a.75.75,0,0,0,0-1.5H9.62v-.59h1.67a.75.75,0,0,0,0-1.5H9.62V17.5a3.19,3.19,0,0,1,3.19-3.19H47.35A7.33,7.33,0,0,1,53.77,17.84ZM40.17,4.66l3.45,8.15H29.35V3.4h8.48A2.74,2.74,0,0,1,40.17,4.66ZM19.37,3.4h8.48v9.41H13.56L17,4.67A2.76,2.76,0,0,1,19.37,3.4Z"/><path class="cls-1" d="M40,15.74H37.56a.75.75,0,1,0,0,1.5H40a.75.75,0,1,0,0-1.5Z"/></svg>