<svg id="Layer_1" data-name="Layer 1" xmlns="http://www.w3.org/2000/svg" viewBox="0 0 64 64"><defs><style>.cls-1{fill:#c65119;}</style></defs><path class="cls-1" d="M7.8,62.31H39.85a3,3,0,0,0,3-3v-32a3,3,0,0,0-3-3H15.55V19.59a.76.76,0,0,0-.75-.75h-.08V3.92a2.24,2.24,0,0,0-4.47,0V18.84h-.08a.75.75,0,0,0-.75.75v4.64H7.8a3,3,0,0,0-3,3v32A3,3,0,0,0,7.8,62.31Zm20.7-1.5.75-6A1.87,1.87,0,0,1,31,53.23h2.42a2.12,2.12,0,0,1,1.95,1.62l1.11,6ZM11.75,3.92a.74.74,0,0,1,1.47,0V18.84H11.75Zm-.83,16.42h3.13v3.89H10.92ZM6.29,27.25A1.52,1.52,0,0,1,7.8,25.73H39.85a1.52,1.52,0,0,1,1.52,1.52v32a1.52,1.52,0,0,1-1.52,1.52h-1.8l-1.17-6.24a3.59,3.59,0,0,0-3.42-2.84H31a3.39,3.39,0,0,0-3.28,2.92L27,60.81H7.8a1.52,1.52,0,0,1-1.51-1.52Z"/><path class="cls-1" d="M15,42.6h2.18a5.28,5.28,0,0,0,2.19-.42A3.12,3.12,0,0,0,20.76,41a3.62,3.62,0,0,0,0-3.67,3.19,3.19,0,0,0-1.43-1.19,5.28,5.28,0,0,0-2.19-.42h-4v9.68H15Zm0-5.37h2.1a2.78,2.78,0,0,1,1.78.5,2,2,0,0,1,0,2.85,2.78,2.78,0,0,1-1.78.5H15Z"/><polygon class="cls-1" points="24.77 39.06 27.95 44.28 28.75 44.28 31.93 38.98 31.94 45.39 33.64 45.39 33.63 35.71 32.15 35.71 28.38 42.13 24.53 35.71 23.06 35.71 23.06 45.39 24.77 45.39 24.77 39.06"/><path class="cls-1" d="M53.38,42.61a.75.75,0,0,0,0,1.5h5.08a.75.75,0,0,0,0-1.5Z"/><path class="cls-1" d="M49.67,40.23h6a3.51,3.51,0,1,0-3.51-3.51.75.75,0,0,0,1.5,0,2,2,0,1,1,2,2h-6a.75.75,0,0,0,0,1.5Z"/><path class="cls-1" d="M49.67,47.82h6a2,2,0,1,1-2,2,.75.75,0,0,0-1.5,0,3.51,3.51,0,1,0,3.51-3.5h-6a.75.75,0,0,0,0,1.5Z"/><path class="cls-1" d="M49.67,44.11h.8a.75.75,0,0,0,0-1.5h-.8a.75.75,0,0,0,0,1.5Z"/></svg>