<svg id="Layer_1" data-name="Layer 1" xmlns="http://www.w3.org/2000/svg" viewBox="0 0 64 64"><defs><style>.cls-1{fill:#c65119;}</style></defs><path class="cls-1" d="M41.56,62.21h4.11a.76.76,0,0,0,.75-.75V38.14h.74a2.43,2.43,0,0,0,2.42-2.43v-2a2.43,2.43,0,0,0-2.42-2.42h-23L19.07,5A4.07,4.07,0,0,0,17.7,2.7a4,4,0,0,0-2.53-.91.75.75,0,0,0-.56.25.78.78,0,0,0-.19.59l3.44,29.45V61.46a.76.76,0,0,0,.75.75h4.11a.76.76,0,0,0,.75-.75V46.11H40.81V61.46A.75.75,0,0,0,41.56,62.21Zm3.36-1.5H42.31V38.14h2.61V60.71ZM40.81,40.59v.74H23.47V38.14H40.81Zm7.27-6.85v2a.93.93,0,0,1-.92.93H19.36V32.82h27.8A.92.92,0,0,1,48.08,33.74ZM16.74,3.86a2.46,2.46,0,0,1,.85,1.44l5,26H19.28L16,3.45A2.2,2.2,0,0,1,16.74,3.86ZM22,60.71H19.36V38.14H22V60.71ZM40.1,44.61H23.47V42.83H40.81v1.78Z"/><path class="cls-1" d="M58.92,25.73a1.71,1.71,0,0,0,0-2.42L55.61,20a.75.75,0,1,0-1.06,1.06l3.31,3.31a.23.23,0,0,1,0,.29L55.23,27.3a1.7,1.7,0,0,0,0,2.41l2.63,2.63a.21.21,0,0,1,0,.29l-2.63,2.63a1.7,1.7,0,0,0,0,2.41l2.63,2.63a.22.22,0,0,1,0,.3l-2.63,2.63a1.7,1.7,0,0,0,0,2.41l2.63,2.63a.23.23,0,0,1,0,.29l-3.31,3.31a.75.75,0,0,0,0,1.06.79.79,0,0,0,.53.22.75.75,0,0,0,.53-.22l3.31-3.31a1.7,1.7,0,0,0,0-2.41l-2.63-2.63a.21.21,0,0,1,0-.29l2.63-2.63a1.71,1.71,0,0,0,0-2.42l-2.63-2.63a.21.21,0,0,1,0-.29l2.63-2.63a1.7,1.7,0,0,0,0-2.41l-2.63-2.63a.21.21,0,0,1,0-.29Z"/><path class="cls-1" d="M5.08,47.21a1.7,1.7,0,0,0,0,2.41l3.31,3.31a.75.75,0,0,0,.53.22.79.79,0,0,0,.53-.22.75.75,0,0,0,0-1.06L6.14,48.56a.23.23,0,0,1,0-.29l2.63-2.63a1.7,1.7,0,0,0,0-2.41L6.14,40.6a.22.22,0,0,1,0-.3l2.63-2.63a1.7,1.7,0,0,0,0-2.41L6.14,32.63a.21.21,0,0,1,0-.29l2.63-2.63a1.7,1.7,0,0,0,0-2.41L6.14,24.67a.23.23,0,0,1,0-.29l3.31-3.31A.75.75,0,1,0,8.39,20l-3.31,3.3a1.71,1.71,0,0,0,0,2.42l2.63,2.63a.21.21,0,0,1,0,.29L5.08,31.28a1.7,1.7,0,0,0,0,2.41l2.63,2.63a.21.21,0,0,1,0,.29L5.08,39.24a1.71,1.71,0,0,0,0,2.42l2.63,2.63a.21.21,0,0,1,0,.29Z"/></svg>