<svg id="Layer_1" data-name="Layer 1" xmlns="http://www.w3.org/2000/svg" viewBox="0 0 64 64"><defs><style>.cls-1{fill:#c65119;}</style></defs><path class="cls-1" d="M31.76,21.46A10.11,10.11,0,0,1,41.85,31.55a.75.75,0,1,0,1.5,0A11.6,11.6,0,0,0,31.76,20a.75.75,0,1,0,0,1.5Z"/><path class="cls-1" d="M39.06,52.51V46.42a16.53,16.53,0,1,0-14.12,0v6.09A7.1,7.1,0,0,0,32,59.57,7.07,7.07,0,0,0,39.06,52.51ZM17,31.46a15,15,0,1,1,21,13.8l-.08.05a1.67,1.67,0,0,0-.16.12,1.25,1.25,0,0,0-.08.12,1.27,1.27,0,0,0-.07.12.58.58,0,0,0,0,.18s0,.06,0,.1v5.81H26.44V46h0s0-.06,0-.1a.58.58,0,0,0,0-.18,1.27,1.27,0,0,0-.07-.12.54.54,0,0,0-.09-.12.88.88,0,0,0-.15-.12L26,45.26A15.12,15.12,0,0,1,17,31.46Zm9.54,21.8h11A5.56,5.56,0,0,1,32,58.07a5.57,5.57,0,0,1-5.49-4.81Z"/><path class="cls-1" d="M31.25,5.18v6.31a.75.75,0,1,0,1.5,0V5.18a.75.75,0,0,0-1.5,0Z"/><path class="cls-1" d="M51.55,13l-4.47,4.46a.75.75,0,0,0,0,1.06.76.76,0,0,0,1.07,0L52.61,14a.75.75,0,0,0,0-1.06A.74.74,0,0,0,51.55,13Z"/><path class="cls-1" d="M60.4,32.82H54.09a.75.75,0,0,0,0,1.5H60.4a.75.75,0,0,0,0-1.5Z"/><path class="cls-1" d="M52.08,54.41a.79.79,0,0,0,.53-.22.75.75,0,0,0,0-1.06l-4.46-4.46a.74.74,0,0,0-1.06,0,.75.75,0,0,0,0,1.06l4.46,4.46A.79.79,0,0,0,52.08,54.41Z"/><path class="cls-1" d="M15.85,48.67l-4.46,4.46a.75.75,0,0,0,0,1.06.75.75,0,0,0,1.06,0l4.46-4.46a.75.75,0,0,0,0-1.06A.74.74,0,0,0,15.85,48.67Z"/><path class="cls-1" d="M10.66,33.57a.75.75,0,0,0-.75-.75H3.6a.75.75,0,0,0,0,1.5H9.91A.74.74,0,0,0,10.66,33.57Z"/><path class="cls-1" d="M16.38,18.71a.79.79,0,0,0,.53-.22.75.75,0,0,0,0-1.06L12.45,13A.75.75,0,0,0,11.39,14l4.46,4.46A.79.79,0,0,0,16.38,18.71Z"/></svg>