<svg id="Layer_1" data-name="Layer 1" xmlns="http://www.w3.org/2000/svg" viewBox="0 0 64 64"><defs><style>.cls-1{fill:#c65119;}</style></defs><path class="cls-1" d="M52.2,46.64h-.67a1.13,1.13,0,0,1-1.14-1.09L48.9,8.66a2.65,2.65,0,0,0-2-2.45c-2.24-.6-7.28-1.6-15.93-1.6s-13.69,1-15.93,1.6a2.65,2.65,0,0,0-2,2.45L11.61,45.55a1.13,1.13,0,0,1-1.14,1.09H9.8a2.64,2.64,0,0,0-2.64,2.64v7.47A2.64,2.64,0,0,0,9.8,59.39H52.2a2.64,2.64,0,0,0,2.64-2.64V49.28A2.64,2.64,0,0,0,52.2,46.64Zm-39.09-1L14.6,8.72a1.14,1.14,0,0,1,.86-1.06C17.62,7.08,22.52,6.11,31,6.11s13.38,1,15.54,1.55a1.15,1.15,0,0,1,.86,1.06l1.49,36.89a2.53,2.53,0,0,0,.26,1H12.85A2.7,2.7,0,0,0,13.11,45.61ZM53.34,56.75a1.14,1.14,0,0,1-1.14,1.14H9.8a1.14,1.14,0,0,1-1.14-1.14V49.28A1.14,1.14,0,0,1,9.8,48.14H52.2a1.14,1.14,0,0,1,1.14,1.14Z"/><path class="cls-1" d="M27.81,15.73a2.2,2.2,0,0,0,1,.24,2.15,2.15,0,0,0,1-.24,1.89,1.89,0,0,0,.72-.68,1.91,1.91,0,0,0,0-2,1.89,1.89,0,0,0-.72-.68,2.15,2.15,0,0,0-1-.24,2.2,2.2,0,0,0-1,.24,1.89,1.89,0,0,0-.72.68,2,2,0,0,0,0,2A1.89,1.89,0,0,0,27.81,15.73Zm0-2.27a1.1,1.1,0,0,1,.41-.42,1.2,1.2,0,0,1,.59-.15,1.15,1.15,0,0,1,.59.15,1,1,0,0,1,.41.42,1.32,1.32,0,0,1,0,1.22,1,1,0,0,1-.41.42,1.15,1.15,0,0,1-.59.15,1.2,1.2,0,0,1-.59-.15,1.1,1.1,0,0,1-.41-.42,1.32,1.32,0,0,1,0-1.22Z"/><polygon class="cls-1" points="32.34 13.68 34.18 15.91 34.88 15.91 34.88 12.23 34.03 12.23 34.03 14.46 32.2 12.23 31.5 12.23 31.5 15.91 32.34 15.91 32.34 13.68"/><path class="cls-1" d="M28.64,39.08a2.27,2.27,0,0,0-2.07,0,1.88,1.88,0,0,0-.72.68,1.91,1.91,0,0,0-.26,1,1.83,1.83,0,0,0,1,1.65,2.27,2.27,0,0,0,2.07,0,1.83,1.83,0,0,0,1-1.65,1.91,1.91,0,0,0-.26-1A1.88,1.88,0,0,0,28.64,39.08Zm0,2.27a1.08,1.08,0,0,1-.41.41,1.1,1.1,0,0,1-.59.15,1.06,1.06,0,0,1-.59-.15,1,1,0,0,1-.42-.41,1.25,1.25,0,0,1-.15-.61,1.23,1.23,0,0,1,.15-.61,1.06,1.06,0,0,1,.42-.42,1.15,1.15,0,0,1,.59-.15,1.2,1.2,0,0,1,.59.15,1.1,1.1,0,0,1,.41.42,1.23,1.23,0,0,1,.15.61A1.25,1.25,0,0,1,28.61,41.35Z"/><polygon class="cls-1" points="30.26 42.58 31.11 42.58 31.11 41.24 32.82 41.24 32.82 40.55 31.11 40.55 31.11 39.58 33.05 39.58 33.05 38.9 30.26 38.9 30.26 42.58"/><polygon class="cls-1" points="33.63 42.58 34.48 42.58 34.48 41.24 36.18 41.24 36.18 40.55 34.48 40.55 34.48 39.58 36.41 39.58 36.41 38.9 33.63 38.9 33.63 42.58"/><path class="cls-1" d="M27.84,37.06h6.25a2,2,0,0,0,2-2V20a2,2,0,0,0-2-2H27.84a2,2,0,0,0-2,2V35A2,2,0,0,0,27.84,37.06ZM27.31,20a.53.53,0,0,1,.53-.53h6.25a.53.53,0,0,1,.53.53V35a.53.53,0,0,1-.53.53H27.84a.53.53,0,0,1-.53-.53Z"/><path class="cls-1" d="M29.64,22.88H32.3a.75.75,0,0,0,0-1.5H29.64a.75.75,0,0,0,0,1.5Z"/></svg>