<svg id="Layer_1" data-name="Layer 1" xmlns="http://www.w3.org/2000/svg" viewBox="0 0 64 64"><defs><style>.cls-1{fill:#c65119;}</style></defs><path class="cls-1" d="M51,5.73H13A1.77,1.77,0,0,0,11.25,7.5V52.42a5.86,5.86,0,0,0,5.86,5.85H46.9a5.86,5.86,0,0,0,5.85-5.85V7.5A1.77,1.77,0,0,0,51,5.73Zm.27,46.69a4.35,4.35,0,0,1-4.35,4.35H17.11a4.36,4.36,0,0,1-4.36-4.35V7.5A.27.27,0,0,1,13,7.23H51a.27.27,0,0,1,.27.27V52.42Z"/><rect class="cls-1" x="24.73" y="49.76" width="2.23" height="3.88" rx="0.75"/><rect class="cls-1" x="30.89" y="49.76" width="2.23" height="3.88" rx="0.75"/><rect class="cls-1" x="37.04" y="49.76" width="2.23" height="3.88" rx="0.75"/><path class="cls-1" d="M39.74,32.28a2.44,2.44,0,0,0-2.44,2.44,5.33,5.33,0,0,1-2.85,4.68V32.23h2.47a2.45,2.45,0,0,0,0-4.89H34.45V23.93a4.35,4.35,0,1,0-4.9,0v3.41H27.08a2.45,2.45,0,0,0,0,4.89h2.47V39.4a5.33,5.33,0,0,1-2.85-4.68,2.45,2.45,0,0,0-4.89,0,10.19,10.19,0,1,0,20.38,0A2.45,2.45,0,0,0,39.74,32.28ZM32,43.41a8.7,8.7,0,0,1-8.69-8.69.95.95,0,0,1,1.89,0A6.84,6.84,0,0,0,30,41.21h0l.06,0h.11l.1,0h.05a.4.4,0,0,0,.15,0l.13,0,.12-.08a.43.43,0,0,0,.1-.09.25.25,0,0,0,.08-.12.33.33,0,0,0,.07-.13.05.05,0,0,0,0,0,.34.34,0,0,0,0-.1.43.43,0,0,0,0-.11v-9a.75.75,0,0,0-.75-.75H27.08a.95.95,0,0,1,0-1.89H30.3a.75.75,0,0,0,.75-.75V23.52a.3.3,0,0,0,0-.1.5.5,0,0,0,0-.16.67.67,0,0,0-.06-.12L30.86,23l-.12-.1s0-.05-.08-.06a2.85,2.85,0,1,1,2.68,0s-.05,0-.08.06l-.12.1-.08.12a.67.67,0,0,0-.06.12.45.45,0,0,0,0,.16.3.3,0,0,0,0,.1v4.57a.75.75,0,0,0,.75.75h3.22a.95.95,0,0,1,0,1.89H33.7a.75.75,0,0,0-.75.75v9a.43.43,0,0,0,0,.11.34.34,0,0,0,0,.1.05.05,0,0,0,0,0,.46.46,0,0,0,.07.14.28.28,0,0,0,.08.11.43.43,0,0,0,.1.09l.12.08.13,0a.4.4,0,0,0,.15,0h.05l.1,0h.11l.06,0h0a6.84,6.84,0,0,0,4.8-6.49.95.95,0,0,1,1.89,0A8.7,8.7,0,0,1,32,43.41Z"/><path class="cls-1" d="M24.56,27.13a.74.74,0,0,0,.53-.22.75.75,0,0,0,0-1.06,7.88,7.88,0,0,1,0-11.13A.75.75,0,1,0,24,13.66a9.39,9.39,0,0,0,0,13.25A.74.74,0,0,0,24.56,27.13Z"/><path class="cls-1" d="M26.59,25.09a.75.75,0,0,0,.53.22.79.79,0,0,0,.53-.22.75.75,0,0,0,0-1.06,5.29,5.29,0,0,1,0-7.48.75.75,0,0,0-1.06-1.06,6.78,6.78,0,0,0,0,9.6Z"/><path class="cls-1" d="M38.91,13.66a.75.75,0,0,0,0,1.06,7.88,7.88,0,0,1,0,11.13.75.75,0,0,0,0,1.06.75.75,0,0,0,1.06,0,9.39,9.39,0,0,0,0-13.25A.75.75,0,0,0,38.91,13.66Z"/><path class="cls-1" d="M37.9,20.29A5.26,5.26,0,0,1,36.35,24a.75.75,0,0,0,0,1.06.79.79,0,0,0,.53.22.77.77,0,0,0,.53-.22,6.78,6.78,0,0,0,0-9.6.75.75,0,1,0-1.06,1.06A5.26,5.26,0,0,1,37.9,20.29Z"/></svg>