<svg id="Layer_1" data-name="Layer 1" xmlns="http://www.w3.org/2000/svg" viewBox="0 0 64 64"><path d="M50.46,55.18v0h0s0,0,0-.07L46.91,21a.75.75,0,0,0-.74-.68H17.83a.75.75,0,0,0-.74.68L13.53,55.15A3.86,3.86,0,0,0,17.39,59H46.61A3.87,3.87,0,0,0,50.46,55.18ZM18.51,21.84h27l3.4,32.57H15.11ZM15.15,55.91H48.83a2.34,2.34,0,0,1-2.22,1.6H17.39A2.38,2.38,0,0,1,15.15,55.91Z"/><path d="M25.45,5a3.51,3.51,0,1,0,0,7,.75.75,0,1,0,0-1.5,2,2,0,1,1,2-2h0v6a.75.75,0,1,0,1.5,0v-6h0A3.51,3.51,0,0,0,25.45,5Z"/><path d="M35,14.53a.75.75,0,1,0,1.5,0v-6h0a2,2,0,1,1,2,2,.75.75,0,0,0,0,1.5A3.51,3.51,0,1,0,35,8.49h0Z"/><path d="M32.09,11.57a.75.75,0,0,0,.75-.75V5.74a.75.75,0,1,0-1.5,0v5.08A.74.74,0,0,0,32.09,11.57Z"/><path d="M31.34,14.53a.75.75,0,0,0,1.5,0v-.8a.75.75,0,1,0-1.5,0Z"/><path d="M25.45,40.89h13.1a.75.75,0,0,0,0-1.5H25.45a.75.75,0,0,0,0,1.5Z"/><path d="M25.45,44.82h13.1a.75.75,0,0,0,0-1.5H25.45a.75.75,0,1,0,0,1.5Z"/><path d="M25.45,48.74h13.1a.75.75,0,0,0,0-1.5H25.45a.75.75,0,1,0,0,1.5Z"/></svg>