<svg id="Layer_1" data-name="Layer 1" xmlns="http://www.w3.org/2000/svg" viewBox="0 0 64 64"><defs><style>.cls-1{fill:#c65119;}</style></defs><path class="cls-1" d="M39.84,24.24H15.57V19.61a.75.75,0,0,0-.75-.75h-.08V4a2.24,2.24,0,0,0-4.47,0v14.9H10.2a.75.75,0,0,0-.75.75v4.63H7.84a3,3,0,0,0-3,3v32a3,3,0,0,0,3,3h32a3,3,0,0,0,3-3v-32A3,3,0,0,0,39.84,24.24ZM11.77,4a.74.74,0,0,1,1.47,0v14.9H11.77ZM11,20.36h3.12v3.88H11ZM28.5,60.77l.75-6A1.87,1.87,0,0,1,31,53.2h2.41a2.11,2.11,0,0,1,1.95,1.62l1.12,6Zm12.85-1.51a1.52,1.52,0,0,1-1.51,1.51H38l-1.16-6.23a3.6,3.6,0,0,0-3.43-2.84H31a3.39,3.39,0,0,0-3.28,2.92L27,60.77H7.84a1.52,1.52,0,0,1-1.52-1.51v-32a1.52,1.52,0,0,1,1.52-1.52h32a1.52,1.52,0,0,1,1.51,1.52Z"/><path class="cls-1" d="M12.73,30.84a2.25,2.25,0,0,1,1.76.82l1-1a3.61,3.61,0,0,0-2.88-1.24,3.62,3.62,0,1,0,0,7.23,3.6,3.6,0,0,0,2.89-1.25l-1-.95a2.22,2.22,0,0,1-1.76.82,2.24,2.24,0,1,1,0-4.47Z"/><path class="cls-1" d="M19.86,36.69a3.62,3.62,0,1,0,0-7.23,3.62,3.62,0,1,0,0,7.23Zm0-5.85a2.24,2.24,0,1,1-2.19,2.24A2.14,2.14,0,0,1,19.86,30.84Z"/><path class="cls-1" d="M26.62,30.82c.74,0,1.12.32,1.12.87,0,.34-.11.7-.73,1.29l-2.7,2.54v1H29.6V35.26h-3l1.61-1.52a2.79,2.79,0,0,0,1.17-2.21c0-1.27-1-2.07-2.6-2.07A3.25,3.25,0,0,0,24,30.76l1.18.76A1.71,1.71,0,0,1,26.62,30.82Z"/><path class="cls-1" d="M19.88,46.69a3.6,3.6,0,0,0,2.89-1.25l-1-.95a2.22,2.22,0,0,1-1.76.82,2.24,2.24,0,1,1,0-4.47,2.25,2.25,0,0,1,1.76.82l1-1a3.61,3.61,0,0,0-2.88-1.24,3.62,3.62,0,1,0,0,7.23Z"/><path class="cls-1" d="M27.1,39.46a3.62,3.62,0,1,0,0,7.23,3.62,3.62,0,1,0,0-7.23Zm0,5.85a2.24,2.24,0,1,1,2.19-2.23A2.13,2.13,0,0,1,27.1,45.31Z"/><polygon class="cls-1" points="34.88 44.58 32.75 39.58 31 39.58 34.02 46.58 35.62 46.58 38.65 39.58 37.04 39.58 34.88 44.58"/><path class="cls-1" d="M12.32,49.58h-3v7h1.62V54.65h1.41c1.87,0,3-1,3-2.53S14.19,49.58,12.32,49.58Zm-.09,3.75H10.91V50.9h1.32c1,0,1.49.45,1.49,1.22S13.22,53.33,12.23,53.33Z"/><polygon class="cls-1" points="23.05 49.58 20.47 53.93 17.85 49.58 16.51 49.58 16.51 56.58 18.03 56.58 18.03 52.47 20.08 55.83 20.81 55.83 22.87 52.38 22.88 56.58 24.39 56.58 24.38 49.58 23.05 49.58"/><path class="cls-1" d="M49.65,40.22h6a3.51,3.51,0,1,0-3.5-3.51.75.75,0,0,0,1.5,0,2,2,0,1,1,2,2h-6a.75.75,0,0,0,0,1.5Z"/><path class="cls-1" d="M55.67,46.3h-6a.75.75,0,1,0,0,1.5h6a2,2,0,1,1-2,2,.75.75,0,0,0-1.5,0,3.51,3.51,0,1,0,3.5-3.5Z"/><path class="cls-1" d="M58.43,42.59H53.35a.75.75,0,1,0,0,1.5h5.08a.75.75,0,1,0,0-1.5Z"/><path class="cls-1" d="M49.65,44.09h.79a.75.75,0,0,0,0-1.5h-.79a.75.75,0,0,0,0,1.5Z"/></svg>