<svg id="Layer_1" data-name="Layer 1" xmlns="http://www.w3.org/2000/svg" viewBox="0 0 64 64"><defs><style>.cls-1{fill:#c65119;}</style></defs><path class="cls-1" d="M46.38,53.72h0a.75.75,0,0,1-.7-.59l-1.71-7.79L42.35,49a.74.74,0,0,1-.69.45H21.19a.75.75,0,1,1,0-1.5h20l2.32-5.36a.75.75,0,0,1,1.42.13L46.49,50l1.22-4.12a.75.75,0,0,1,.66-.54.77.77,0,0,1,.74.44l1,2.23h1.69a.75.75,0,0,1,0,1.5H49.64A.75.75,0,0,1,49,49l-.38-.84-1.48,5A.75.75,0,0,1,46.38,53.72Z"/><path class="cls-1" d="M45.82,61.24a.78.78,0,0,1-.48-.17,120.24,120.24,0,0,1-9.58-8.59.75.75,0,0,1,0-1.06.75.75,0,0,1,1.06,0,117.58,117.58,0,0,0,9,8.08C58.67,48.87,59.64,45.83,59.64,42.43s-3.11-7.27-7-7.27a8.56,8.56,0,0,0-6.24,3.09.79.79,0,0,1-1.2,0A8.68,8.68,0,0,0,39,35.16c-3.85,0-7,4-7,7.27a8.67,8.67,0,0,0,.31,2.49.75.75,0,1,1-1.44.42,10.19,10.19,0,0,1-.37-2.91c0-4,3.7-8.77,8.46-8.77a9.83,9.83,0,0,1,6.85,3,9.78,9.78,0,0,1,6.84-3c4.76,0,8.46,4.72,8.46,8.77s-1,7.22-14.84,18.64A.78.78,0,0,1,45.82,61.24Z"/><path class="cls-1" d="M12.33,48.54a.74.74,0,0,1-.72-.56L5.42,24.74a.75.75,0,0,1,1.45-.39L13.06,47.6a.75.75,0,0,1-.54.91A.58.58,0,0,1,12.33,48.54Z"/><path class="cls-1" d="M19.86,21.17H3.05a.75.75,0,0,1-.75-.75V3.6a.75.75,0,0,1,.75-.75H19.86a.75.75,0,0,1,.75.75V20.42A.75.75,0,0,1,19.86,21.17ZM3.8,19.67H19.11V4.35H3.8Z"/><path class="cls-1" d="M11.45,17a5,5,0,1,1,5-5A5,5,0,0,1,11.45,17Zm0-8.48A3.49,3.49,0,1,0,14.94,12,3.49,3.49,0,0,0,11.45,8.52Z"/><path class="cls-1" d="M44.86,18.65a.74.74,0,0,1-.37-.1L23.68,6.49a.75.75,0,0,1,.75-1.3L45.24,17.25a.75.75,0,0,1-.38,1.4Z"/><path class="cls-1" d="M30,32.19a.77.77,0,0,1-.53-.22l-7.64-7.64a.75.75,0,1,1,1.06-1.06l7.64,7.64a.75.75,0,0,1,0,1.06A.79.79,0,0,1,30,32.19Z"/></svg>