<svg id="Layer_1" data-name="Layer 1" xmlns="http://www.w3.org/2000/svg" viewBox="0 0 64 64"><defs><style>.cls-1{fill:#c65119;}</style></defs><path class="cls-1" d="M7.91,62.37h32a3,3,0,0,0,3-3v-32a3,3,0,0,0-3-3H15.65V19.7A.76.76,0,0,0,14.9,19h-.08V4.05a2.24,2.24,0,0,0-4.47,0V19h-.08a.76.76,0,0,0-.75.75v4.63H7.91a3,3,0,0,0-3,3v32A3,3,0,0,0,7.91,62.37Zm20.67-1.5.75-6a1.87,1.87,0,0,1,1.79-1.59h2.41a2.1,2.1,0,0,1,1.95,1.62l1.11,5.95ZM11.85,4.05a.74.74,0,0,1,1.47,0V19H11.85ZM11,20.45h3.13v3.88H11ZM6.4,27.35a1.52,1.52,0,0,1,1.51-1.52h32a1.52,1.52,0,0,1,1.51,1.52v32a1.52,1.52,0,0,1-1.51,1.52h-1.8L37,54.64a3.58,3.58,0,0,0-3.42-2.84H31.12a3.39,3.39,0,0,0-3.28,2.91l-.77,6.16H7.91A1.52,1.52,0,0,1,6.4,59.35Z"/><path class="cls-1" d="M9.61,36.32a4,4,0,0,0,1.93.47,4.15,4.15,0,0,0,1.65-.32,3.38,3.38,0,0,0,1.24-.93l-1-1a2.23,2.23,0,0,1-1.76.83,2.35,2.35,0,0,1-1.16-.29,2,2,0,0,1-.79-.79,2.35,2.35,0,0,1-.29-1.16A2.32,2.32,0,0,1,9.68,32a2,2,0,0,1,.79-.8,2.34,2.34,0,0,1,1.16-.28,2.22,2.22,0,0,1,1.76.82l1-1a3.22,3.22,0,0,0-1.23-.92,4,4,0,0,0-1.65-.32A4,4,0,0,0,9.61,30,3.45,3.45,0,0,0,8.25,31.3a3.73,3.73,0,0,0,0,3.73A3.45,3.45,0,0,0,9.61,36.32Z"/><path class="cls-1" d="M16.8,36.32a4.32,4.32,0,0,0,3.92,0,3.63,3.63,0,0,0,1.37-5A3.47,3.47,0,0,0,20.72,30a4.32,4.32,0,0,0-3.92,0,3.41,3.41,0,0,0-1.37,1.29,3.69,3.69,0,0,0,0,3.71A3.5,3.5,0,0,0,16.8,36.32ZM16.86,32a2.07,2.07,0,0,1,.78-.8,2.38,2.38,0,0,1,2.24,0,2.09,2.09,0,0,1,.79.8A2.32,2.32,0,0,1,21,33.17a2.34,2.34,0,0,1-.28,1.16,2.07,2.07,0,0,1-.79.79,2.31,2.31,0,0,1-2.24,0,2,2,0,0,1-.78-.79,2.35,2.35,0,0,1-.29-1.16A2.32,2.32,0,0,1,16.86,32Z"/><path class="cls-1" d="M24.69,31.08a2,2,0,0,1,.83-.17,1.29,1.29,0,0,1,.83.22.76.76,0,0,1,.29.65,1.25,1.25,0,0,1-.15.58,2.86,2.86,0,0,1-.58.71l-2.7,2.55v1.05H28.5V35.35h-3l1.61-1.52A4.22,4.22,0,0,0,28,32.69a2.46,2.46,0,0,0,.24-1.07,1.92,1.92,0,0,0-.32-1.1A2.12,2.12,0,0,0,27,29.8a3.42,3.42,0,0,0-1.37-.25,3.77,3.77,0,0,0-1.65.34,2.73,2.73,0,0,0-1.13,1l1.18.76A1.58,1.58,0,0,1,24.69,31.08Z"/><path class="cls-1" d="M19.66,44.21a2.34,2.34,0,0,1,1.16-.28,2.22,2.22,0,0,1,1.76.82l1-1a3.22,3.22,0,0,0-1.23-.92A4.36,4.36,0,0,0,18.8,43a3.58,3.58,0,0,0,0,6.31,4,4,0,0,0,1.93.47,4.15,4.15,0,0,0,1.65-.32,3.38,3.38,0,0,0,1.24-.93l-1-1a2.23,2.23,0,0,1-1.76.83,2.35,2.35,0,0,1-1.16-.29,2,2,0,0,1-.79-.79,2.35,2.35,0,0,1-.29-1.16A2.32,2.32,0,0,1,18.87,45,2,2,0,0,1,19.66,44.21Z"/><path class="cls-1" d="M26,43a3.41,3.41,0,0,0-1.37,1.29,3.69,3.69,0,0,0,0,3.71A3.5,3.5,0,0,0,26,49.32a4.32,4.32,0,0,0,3.92,0,3.63,3.63,0,0,0,1.37-5A3.47,3.47,0,0,0,29.91,43,4.32,4.32,0,0,0,26,43Zm3.87,2a2.32,2.32,0,0,1,.28,1.16,2.34,2.34,0,0,1-.28,1.16,2.07,2.07,0,0,1-.79.79,2.31,2.31,0,0,1-2.24,0,2,2,0,0,1-.78-.79,2.35,2.35,0,0,1-.29-1.16A2.32,2.32,0,0,1,26.05,45a2.07,2.07,0,0,1,.78-.8,2.38,2.38,0,0,1,2.24,0A2.09,2.09,0,0,1,29.86,45Z"/><polygon class="cls-1" points="36.47 49.67 39.5 42.67 37.89 42.67 35.73 47.67 33.6 42.67 31.85 42.67 34.87 49.67 36.47 49.67"/><path class="cls-1" d="M49.73,40.31h6a3.51,3.51,0,1,0-3.5-3.5.75.75,0,0,0,1.5,0,2,2,0,1,1,2,2h-6a.75.75,0,1,0,0,1.5Z"/><path class="cls-1" d="M49.73,47.89h6a2,2,0,1,1-2,2,.75.75,0,0,0-1.5,0,3.51,3.51,0,1,0,3.5-3.5h-6a.75.75,0,0,0,0,1.5Z"/><path class="cls-1" d="M53.43,42.69a.75.75,0,0,0,0,1.5h5.08a.75.75,0,0,0,0-1.5Z"/><path class="cls-1" d="M49.73,44.19h.79a.75.75,0,1,0,0-1.5h-.79a.75.75,0,1,0,0,1.5Z"/><path class="cls-1" d="M27.8,38.78H17.69a.75.75,0,1,0,0,1.5H27.8a.75.75,0,0,0,0-1.5Z"/></svg>