<svg id="Layer_1" data-name="Layer 1" xmlns="http://www.w3.org/2000/svg" viewBox="0 0 64 64"><defs><style>.cls-1{fill:#c65119;}</style></defs><path class="cls-1" d="M57.76,25.5a.75.75,0,0,1-.75-.75A17.34,17.34,0,0,0,39.69,7.44a.75.75,0,0,1,0-1.5A18.84,18.84,0,0,1,58.51,24.75.75.75,0,0,1,57.76,25.5Z"/><path class="cls-1" d="M52.34,25.5a.75.75,0,0,1-.75-.75,11.91,11.91,0,0,0-11.9-11.89.75.75,0,0,1,0-1.5,13.41,13.41,0,0,1,13.4,13.39A.75.75,0,0,1,52.34,25.5Z"/><path class="cls-1" d="M46.92,25.5h0a.75.75,0,0,1-.75-.75,6.47,6.47,0,0,0-6.48-6.47.75.75,0,0,1,0-1.5,8,8,0,0,1,8,8A.75.75,0,0,1,46.92,25.5Z"/><path class="cls-1" d="M20,62.08a2.75,2.75,0,0,1-1.94-.8L3.71,46.9a2.76,2.76,0,0,1,0-3.89L22.43,24.29a5.47,5.47,0,0,1,4-1.41l13.68,1.5a.73.73,0,0,1,.66.67l1.34,13.49a5.56,5.56,0,0,1-1.43,4L22,61.28A2.79,2.79,0,0,1,20,62.08Zm6-37.72a4.12,4.12,0,0,0-2.55,1L4.77,44.07a1.27,1.27,0,0,0-.36.89,1.25,1.25,0,0,0,.36.88L19.15,60.22a1.26,1.26,0,0,0,1.76,0L39.64,41.49a4.06,4.06,0,0,0,1-2.8L39.36,25.8,26.28,24.37Z"/><path class="cls-1" d="M32.19,37.3A4.5,4.5,0,1,1,35.37,36h0A4.48,4.48,0,0,1,32.19,37.3Zm0-7.5a3,3,0,1,0,2.12.88A3,3,0,0,0,32.19,29.8Zm2.65,5.65h0Z"/></svg>