<svg id="Layer_1" data-name="Layer 1" xmlns="http://www.w3.org/2000/svg" viewBox="0 0 64 64"><defs><style>.cls-1{fill:#c65119;}</style></defs><path class="cls-1" d="M10.13,63.69a.76.76,0,0,1-.75-.75V53.66a.75.75,0,0,1,1.5,0v9.28A.75.75,0,0,1,10.13,63.69Z"/><path class="cls-1" d="M10.13,36.47a.74.74,0,0,1-.75-.74V23a.75.75,0,0,1,1.5,0V35.71A.76.76,0,0,1,10.13,36.47Z"/><path class="cls-1" d="M19.09,54.41H1.15a.74.74,0,0,1-.75-.75V35.72A.75.75,0,0,1,1.15,35H19.09a.76.76,0,0,1,.75.75V53.66A.75.75,0,0,1,19.09,54.41ZM1.9,52.91H18.34V36.47H1.9Z"/><path class="cls-1" d="M15.08,41.83a1.53,1.53,0,1,1-1.52-1.53A1.53,1.53,0,0,1,15.08,41.83Z"/><path class="cls-1" d="M4.58,36.47a.75.75,0,0,1-.75-.75v-7.1a.75.75,0,0,1,1.5,0v7.1A.76.76,0,0,1,4.58,36.47Z"/><path class="cls-1" d="M35.62,23.89a.74.74,0,0,1-.53-.22,15.93,15.93,0,0,1,0-22.5.74.74,0,0,1,1.06,0,.74.74,0,0,1,0,1.06,14.42,14.42,0,0,0,0,20.38.74.74,0,0,1,0,1.06A.73.73,0,0,1,35.62,23.89Z"/><path class="cls-1" d="M38.84,20.68a.79.79,0,0,1-.53-.22,11.39,11.39,0,0,1,0-16.08.75.75,0,1,1,1.06,1.06,9.9,9.9,0,0,0,0,14,.75.75,0,0,1,0,1.06A.79.79,0,0,1,38.84,20.68Z"/><path class="cls-1" d="M42.06,17.46a.75.75,0,0,1-.53-.22,6.82,6.82,0,0,1,0-9.64.75.75,0,1,1,1.06,1.06,5.33,5.33,0,0,0,0,7.52.75.75,0,0,1,0,1.06A.79.79,0,0,1,42.06,17.46Z"/><path class="cls-1" d="M14.68,11.39H12.13a.75.75,0,0,1,0-1.5h2.55a.75.75,0,0,1,0,1.5Z"/><path class="cls-1" d="M14.68,14.57H12.13a.75.75,0,0,1,0-1.5h2.55a.75.75,0,0,1,0,1.5Z"/><path class="cls-1" d="M14.68,17.75H12.13a.75.75,0,0,1,0-1.5h2.55a.75.75,0,0,1,0,1.5Z"/><path class="cls-1" d="M8.13,11.39H5.57a.75.75,0,0,1,0-1.5H8.13a.75.75,0,1,1,0,1.5Z"/><path class="cls-1" d="M8.13,14.57H5.57a.75.75,0,0,1,0-1.5H8.13a.75.75,0,1,1,0,1.5Z"/><path class="cls-1" d="M8.13,17.75H5.57a.75.75,0,0,1,0-1.5H8.13a.75.75,0,1,1,0,1.5Z"/><path class="cls-1" d="M47.84,24.26a1.26,1.26,0,0,1-1.23-1.38V1.69A1.26,1.26,0,0,1,47.84.31a1.48,1.48,0,0,1,.78.24L56.55,5.3a3.68,3.68,0,0,0,1.52.42h3.76A1.78,1.78,0,0,1,63.6,7.5v9.57a1.78,1.78,0,0,1-1.77,1.78H58.07a3.68,3.68,0,0,0-1.52.42L48.62,24A1.48,1.48,0,0,1,47.84,24.26ZM48.11,2V22.58L55.78,18a5.07,5.07,0,0,1,2.29-.63h3.76a.28.28,0,0,0,.27-.28V7.5a.28.28,0,0,0-.27-.28H58.07a5.07,5.07,0,0,1-2.29-.63Z"/><path class="cls-1" d="M10.12,23.71A5.33,5.33,0,0,1,4.8,18.39V10.28a5.32,5.32,0,0,1,10.64,0v8.11A5.33,5.33,0,0,1,10.12,23.71Zm0-17.24A3.82,3.82,0,0,0,6.3,10.28v8.11a3.82,3.82,0,0,0,7.64,0V10.28A3.82,3.82,0,0,0,10.12,6.47Z"/></svg>