<svg id="Layer_1" data-name="Layer 1" xmlns="http://www.w3.org/2000/svg" viewBox="0 0 64 64"><defs><style>.cls-1{fill:#c65119;}</style></defs><path class="cls-1" d="M28.83,53.18h6.34a2,2,0,0,0,2-2V36a2,2,0,0,0-2-2H28.83a2,2,0,0,0-2,2v15.2A2,2,0,0,0,28.83,53.18ZM28.37,36a.47.47,0,0,1,.46-.46h6.34a.47.47,0,0,1,.46.46v15.2a.46.46,0,0,1-.46.45H28.83a.46.46,0,0,1-.46-.45Z"/><path class="cls-1" d="M30.65,39h2.7a.75.75,0,0,0,0-1.5h-2.7a.75.75,0,0,0,0,1.5Z"/><path class="cls-1" d="M20.66,1.69a2.23,2.23,0,0,0-2.24,2.23V18.84h-.08a.76.76,0,0,0-.75.75v4.64H16a3,3,0,0,0-3,3v32a3,3,0,0,0,3,3H48a3,3,0,0,0,3-3v-32a3,3,0,0,0-3-3H23.72V19.59a.75.75,0,0,0-.75-.75h-.08V3.92A2.23,2.23,0,0,0,20.66,1.69Zm-.74,2.23a.74.74,0,0,1,1.47,0V18.84H19.92ZM49.54,27.25v32A1.52,1.52,0,0,1,48,60.81H16a1.52,1.52,0,0,1-1.52-1.52v-32A1.52,1.52,0,0,1,16,25.73H48A1.52,1.52,0,0,1,49.54,27.25Zm-30.45-3V20.34h3.13v3.89Z"/><path class="cls-1" d="M28.84,31.85a2.35,2.35,0,0,0,2.07,0,2,2,0,0,0,.72-.68,2,2,0,0,0,0-2,2,2,0,0,0-.72-.68,2.35,2.35,0,0,0-2.07,0,1.89,1.89,0,0,0-.72.68,2,2,0,0,0,0,2A1.82,1.82,0,0,0,28.84,31.85Zm0-2.27a1.06,1.06,0,0,1,.42-.42,1.22,1.22,0,0,1,1.17,0,1.06,1.06,0,0,1,.42.42,1.32,1.32,0,0,1,0,1.22,1.06,1.06,0,0,1-.42.42,1.22,1.22,0,0,1-1.17,0,1.06,1.06,0,0,1-.42-.42,1.32,1.32,0,0,1,0-1.22Z"/><polygon class="cls-1" points="33.37 29.8 35.21 32.03 35.91 32.03 35.91 28.35 35.07 28.35 35.07 30.59 33.23 28.35 32.53 28.35 32.53 32.03 33.37 32.03 33.37 29.8"/><path class="cls-1" d="M27.6,58.51a2.13,2.13,0,0,0,1,.25,2.09,2.09,0,0,0,1-.25,1.88,1.88,0,0,0,.72-.68,1.79,1.79,0,0,0,.26-1,1.82,1.82,0,0,0-.26-1,2,2,0,0,0-.72-.68,2.21,2.21,0,0,0-1-.25,2.25,2.25,0,0,0-1,.25,2,2,0,0,0-.72.68,1.91,1.91,0,0,0-.26,1,1.83,1.83,0,0,0,1,1.65Zm0-2.26a1,1,0,0,1,.41-.42,1.15,1.15,0,0,1,.59-.15,1.18,1.18,0,0,1,.59.15,1.1,1.1,0,0,1,.41.42,1.23,1.23,0,0,1,.15.61,1.25,1.25,0,0,1-.15.61,1,1,0,0,1-.41.41,1.09,1.09,0,0,1-.59.16,1.07,1.07,0,0,1-.59-.16,1,1,0,0,1-.41-.41,1.25,1.25,0,0,1-.15-.61A1.23,1.23,0,0,1,27.64,56.25Z"/><polygon class="cls-1" points="31.29 58.7 32.15 58.7 32.15 57.36 33.85 57.36 33.85 56.67 32.15 56.67 32.15 55.7 34.08 55.7 34.08 55.02 31.29 55.02 31.29 58.7"/><polygon class="cls-1" points="34.66 58.7 35.51 58.7 35.51 57.36 37.21 57.36 37.21 56.67 35.51 56.67 35.51 55.7 37.44 55.7 37.44 55.02 34.66 55.02 34.66 58.7"/></svg>