<svg id="Layer_1" data-name="Layer 1" xmlns="http://www.w3.org/2000/svg" viewBox="0 0 64 64"><defs><style>.cls-1{fill:#c65119;}</style></defs><path class="cls-1" d="M27,36.15a.75.75,0,0,0-1-.33.76.76,0,0,0-.33,1L37.06,59.4a.76.76,0,0,0,.67.41.81.81,0,0,0,.34-.08.75.75,0,0,0,.33-1Z"/><path class="cls-1" d="M60.77,8l-24.6,6a.75.75,0,0,0,.18,1.48l.18,0,24.6-6.06A.75.75,0,1,0,60.77,8Z"/><path class="cls-1" d="M56.85,36.52,33.77,25.88a.74.74,0,0,0-1,.36.75.75,0,0,0,.36,1L56.22,37.88a.87.87,0,0,0,.31.07.75.75,0,0,0,.32-1.43Z"/><path class="cls-1" d="M24.07,4.19h-21a.76.76,0,0,0-.75.75V26a.75.75,0,0,0,.75.75h21a.74.74,0,0,0,.75-.75v-21A.75.75,0,0,0,24.07,4.19Zm-.75,21H3.8V5.69H23.32Z"/><path class="cls-1" d="M13.56,21.5a6,6,0,1,0-6-6.05A6.06,6.06,0,0,0,13.56,21.5Zm0-10.59A4.55,4.55,0,1,1,9,15.45,4.55,4.55,0,0,1,13.56,10.91Z"/></svg>