<svg id="Layer_1" data-name="Layer 1" xmlns="http://www.w3.org/2000/svg" viewBox="0 0 64 64"><defs><style>.cls-1{fill:#c65119;}</style></defs><path class="cls-1" d="M43.45,60.61H20.55a4.5,4.5,0,0,1-4.5-4.49V20.67a4.5,4.5,0,0,1,4.5-4.49h22.9a4.5,4.5,0,0,1,4.49,4.49V56.12A4.5,4.5,0,0,1,43.45,60.61ZM20.55,17.68a3,3,0,0,0-3,3V56.12a3,3,0,0,0,3,3h22.9a3,3,0,0,0,3-3V20.67a3,3,0,0,0-3-3Z"/><path class="cls-1" d="M39.27,7.9a.74.74,0,0,1-.53-.22,9.55,9.55,0,0,0-13.48,0A.75.75,0,1,1,24.2,6.62a11,11,0,0,1,15.6,0,.75.75,0,0,1,0,1.06A.74.74,0,0,1,39.27,7.9Z"/><path class="cls-1" d="M37.09,10.08a.73.73,0,0,1-.53-.22,6.45,6.45,0,0,0-9.12,0,.74.74,0,0,1-1.06,0,.75.75,0,0,1,0-1.06,7.94,7.94,0,0,1,11.24,0,.75.75,0,0,1,0,1.06A.74.74,0,0,1,37.09,10.08Z"/><path class="cls-1" d="M34.91,12.26a.73.73,0,0,1-.53-.22,3.45,3.45,0,0,0-4.76,0,.74.74,0,0,1-1.06,0,.75.75,0,0,1,0-1.06,4.88,4.88,0,0,1,6.88,0,.75.75,0,0,1,0,1.06A.74.74,0,0,1,34.91,12.26Z"/><path class="cls-1" d="M32,56.35a9.5,9.5,0,1,1,9.5-9.5A9.51,9.51,0,0,1,32,56.35Zm0-17.5a8,8,0,1,0,8,8A8,8,0,0,0,32,38.85Z"/><path class="cls-1" d="M21.78,31.08l.45-1a3.87,3.87,0,0,0,2.31.76c1.09,0,1.55-.38,1.55-.9,0-1.51-4.16-.52-4.16-3.12,0-1.13.9-2.09,2.82-2.09a4.43,4.43,0,0,1,2.33.62l-.41,1a3.89,3.89,0,0,0-1.93-.55c-1.08,0-1.52.42-1.52,1,0,1.49,4.14.52,4.14,3.09,0,1.11-.9,2.07-2.82,2.07A4.51,4.51,0,0,1,21.78,31.08Z"/><path class="cls-1" d="M28.16,28.33a3.58,3.58,0,0,1,3.77-3.6,3.6,3.6,0,1,1,0,7.19A3.58,3.58,0,0,1,28.16,28.33Zm6.22,0a2.46,2.46,0,1,0-2.45,2.46A2.38,2.38,0,0,0,34.38,28.33Z"/><path class="cls-1" d="M36.49,31.08l.45-1a3.87,3.87,0,0,0,2.31.76c1.09,0,1.55-.38,1.55-.9,0-1.51-4.16-.52-4.16-3.12,0-1.13.9-2.09,2.82-2.09a4.43,4.43,0,0,1,2.33.62l-.41,1a3.89,3.89,0,0,0-1.93-.55c-1.08,0-1.52.42-1.52,1,0,1.49,4.14.52,4.14,3.09,0,1.11-.9,2.07-2.82,2.07A4.51,4.51,0,0,1,36.49,31.08Z"/></svg>